<svg width="200" height="32" viewBox="0 0 200 32" fill="none" xmlns="http://www.w3.org/2000/svg">
<g clip-path="url(#clip0_2958_150)">
<path d="M6.06897 30.8541C4.24403 30.1326 2.80106 29.0292 1.69761 27.5862C0.594165 26.1432 0.0424403 24.4032 0 22.3236H8.1061C8.23342 23.4695 8.61538 24.3607 9.29443 24.9549C9.97347 25.5491 10.8647 25.8462 11.9682 25.8462C13.1141 25.8462 14.0053 25.5915 14.6419 25.0822C15.2785 24.5729 15.618 23.8515 15.618 22.9178C15.618 22.1538 15.3634 21.5172 14.8541 21.008C14.3448 20.4987 13.7082 20.0743 12.9443 19.7772C12.1804 19.4377 11.1194 19.0981 9.71883 18.6737C7.6817 18.0371 6.06897 17.443 4.79576 16.8064C3.52255 16.1698 2.4191 15.2785 1.48541 14.0477C0.551724 12.817 0.127321 11.2467 0.127321 9.29443C0.127321 6.40849 1.18833 4.11671 3.2679 2.46154C5.34748 0.806366 8.1061 0 11.4589 0C14.8966 0 17.6552 0.806366 19.7772 2.46154C21.8992 4.11671 23.0027 6.40849 23.1724 9.33687H14.939C14.8966 8.3183 14.5146 7.55438 13.8355 6.96021C13.1565 6.36605 12.2653 6.11141 11.2042 6.11141C10.2706 6.11141 9.54907 6.36605 8.99735 6.83289C8.44562 7.34217 8.14854 8.02122 8.14854 8.95491C8.14854 9.97347 8.61538 10.7374 9.59151 11.3316C10.5252 11.8833 12.0106 12.5199 14.0477 13.1565C16.0849 13.8355 17.6976 14.4721 18.9708 15.1088C20.244 15.7454 21.305 16.6366 22.2387 17.8249C23.1724 19.0133 23.5968 20.5411 23.5968 22.4085C23.5968 24.191 23.13 25.8037 22.2387 27.2467C21.3475 28.6897 20.0318 29.8355 18.2918 30.7268C16.5517 31.5756 14.557 32 12.1804 32C9.88859 32 7.85146 31.618 6.06897 30.8541Z" fill="white"/>
<path d="M35.1828 6.53584V12.8595H46.6841V18.7162H35.1828V25.5491H46.6841V31.6605H27.5859V0.424438H46.7265V6.53584H35.1828Z" fill="white"/>
<path d="M66.6739 31.6605L60.1805 19.8621H58.3556V31.6605H50.7588V0.424438H63.5333C65.9949 0.424438 68.0744 0.848842 69.8145 1.69765C71.5545 2.54645 72.8278 3.73478 73.719 5.22019C74.5678 6.70561 74.9922 8.40322 74.9922 10.2282C74.9922 12.3077 74.3981 14.1751 73.2522 15.7878C72.0638 17.4006 70.3662 18.5889 68.0744 19.2679L75.2893 31.6181H66.6739V31.6605ZM58.3556 14.5146H63.0665C64.467 14.5146 65.4856 14.1751 66.2071 13.4961C66.8861 12.817 67.2681 11.8409 67.2681 10.6101C67.2681 9.42179 66.9286 8.4881 66.2071 7.80905C65.528 7.13001 64.467 6.79049 63.0665 6.79049H58.3556V14.5146Z" fill="white"/>
<path d="M108.817 0.424438L97.7398 31.6605H88.2332L77.1562 0.424438H85.2623L92.9865 23.9788L100.753 0.424438H108.817Z" fill="white"/>
<path d="M136.955 0.424438V6.53584H128.679V31.6605H121.083V6.53584H112.807V0.424438H136.955Z" fill="white"/>
<path d="M148.584 6.53584V12.8595H160.085V18.7162H148.584V25.5491H160.085V31.6605H140.944V0.424438H160.085V6.53584H148.584Z" fill="white"/>
<path d="M199.469 0.424438V31.6605H191.873V12.9443L184.87 31.6605H178.716L171.671 12.9019V31.6605H164.074V0.424438H173.072L181.857 22.069L190.557 0.424438H199.469Z" fill="white"/>
</g>
<defs>
<clipPath id="clip0_2958_150">
<rect width="199.469" height="32" fill="white"/>
</clipPath>
</defs>
</svg>
